{
  "asset": {
    "copyright": "",
    "generator": "SharpGLTF 1.0.0-alpha0029",
    "version": "2.0"
  },
  "extensionsUsed": [
    "KHR_materials_unlit"
  ],
  "accessors": [
    {
      "bufferView": 0,
      "componentType": 5123,
      "count": 16218,
      "type": "SCALAR"
    },
    {
      "name": "POSITION",
      "bufferView": 1,
      "componentType": 5126,
      "count": 4738,
      "max": [
        374.4964904785156,
        352.847900390625,
        374.49639892578125
      ],
      "min": [
        -374.4964904785156,
        -816.9623413085938,
        -374.49658203125
      ],
      "type": "VEC3"
    },
    {
      "name": "JOINTS_0",
      "bufferView": 2,
      "componentType": 5121,
      "count": 4738,
      "type": "VEC4"
    },
    {
      "name": "WEIGHTS_0",
      "bufferView": 3,
      "componentType": 5126,
      "count": 4738,
      "max": [
        1,
        0,
        0,
        0
      ],
      "min": [
        1,
        0,
        0,
        0
      ],
      "type": "VEC4"
    },
    {
      "name": "NORMAL",
      "bufferView": 4,
      "componentType": 5126,
      "count": 4738,
      "max": [
        1,
        0.9907063245773315,
        1
      ],
      "min": [
        -1,
        -0.8935455679893494,
        -1
      ],
      "type": "VEC3"
    },
    {
      "name": "TEXCOORD_0",
      "bufferView": 5,
      "componentType": 5126,
      "count": 4738,
      "max": [
        0.9935818314552307,
        0.997688353061676
      ],
      "min": [
        0.009999999776482582,
        0.010000050067901611
      ],
      "type": "VEC2"
    },
    {
      "bufferView": 6,
      "componentType": 5123,
      "count": 23400,
      "type": "SCALAR"
    },
    {
      "name": "POSITION",
      "bufferView": 1,
      "byteOffset": 56856,
      "componentType": 5126,
      "count": 7452,
      "max": [
        374.4964904785156,
        352.84796142578125,
        374.4964904785156
      ],
      "min": [
        -374.49658203125,
        -816.9625244140625,
        -374.4964904785156
      ],
      "type": "VEC3"
    },
    {
      "name": "JOINTS_0",
      "bufferView": 2,
      "byteOffset": 18952,
      "componentType": 5121,
      "count": 7452,
      "type": "VEC4"
    },
    {
      "name": "WEIGHTS_0",
      "bufferView": 3,
      "byteOffset": 75808,
      "componentType": 5126,
      "count": 7452,
      "max": [
        1,
        0,
        0,
        0
      ],
      "min": [
        1,
        0,
        0,
        0
      ],
      "type": "VEC4"
    },
    {
      "name": "NORMAL",
      "bufferView": 4,
      "byteOffset": 56856,
      "componentType": 5126,
      "count": 7452,
      "max": [
        1,
        1,
        1
      ],
      "min": [
        -1,
        -0.9999951720237732,
        -1
      ],
      "type": "VEC3"
    },
    {
      "name": "TEXCOORD_0",
      "bufferView": 5,
      "byteOffset": 37904,
      "componentType": 5126,
      "count": 7452,
      "max": [
        1.0311410427093506,
        0.9942637085914612
      ],
      "min": [
        0.0022090000566095114,
        0.0005130171775817871
      ],
      "type": "VEC2"
    },
    {
      "name": "Bind Matrices",
      "bufferView": 7,
      "componentType": 5126,
      "count": 47,
      "max": [
        0.0004996656789444387,
        0,
        0,
        0,
        0,
        0.9999999403953552,
        0,
        0,
        1,
        0,
        0.0004996656789444387,
        0,
        288.4665832519531,
        344.19281005859375,
        233.5207977294922,
        1
      ],
      "min": [
        -0.999999463558197,
        0,
        -1,
        0,
        0,
        0.9999999403953552,
        0,
        0,
        0,
        0,
        -0.999999463558197,
        0,
        -258.5314025878906,
        -316.65838623046875,
        -273.14349365234375,
        1
      ],
      "type": "MAT4"
    }
  ],
  "bufferViews": [
    {
      "buffer": 0,
      "byteLength": 32436,
      "byteOffset": 680680,
      "target": 34963
    },
    {
      "buffer": 0,
      "byteLength": 146280,
      "byteOffset": 195040,
      "byteStride": 12,
      "target": 34962
    },
    {
      "buffer": 0,
      "byteLength": 48760,
      "byteOffset": 585120,
      "byteStride": 4,
      "target": 34962
    },
    {
      "buffer": 0,
      "byteLength": 195040,
      "byteStride": 16,
      "target": 34962
    },
    {
      "buffer": 0,
      "byteLength": 146280,
      "byteOffset": 341320,
      "byteStride": 12,
      "target": 34962
    },
    {
      "buffer": 0,
      "byteLength": 97520,
      "byteOffset": 487600,
      "byteStride": 8,
      "target": 34962
    },
    {
      "buffer": 0,
      "byteLength": 46800,
      "byteOffset": 633880,
      "target": 34963
    },
    {
      "buffer": 0,
      "byteLength": 3008,
      "byteOffset": 713116
    }
  ],
  "buffers": [
    {
      "byteLength": 716124,
      "uri": "nexus.bin"
    }
  ],
  "images": [
    {
      "uri": "nexus_0.png"
    },
    {
      "uri": "nexus_1.png"
    }
  ],
  "materials": [
    {
      "extensions": {
        "KHR_materials_unlit": {}
      },
      "name": "SRUAP_OrderNexus_Mat",
      "doubleSided": true,
      "pbrMetallicRoughness": {
        "baseColorTexture": {
          "index": 0
        }
      }
    },
    {
      "extensions": {
        "KHR_materials_unlit": {}
      },
      "name": "Khai_destroyed",
      "doubleSided": true,
      "pbrMetallicRoughness": {
        "baseColorTexture": {
          "index": 1
        }
      }
    }
  ],
  "meshes": [
    {
      "primitives": [
        {
          "attributes": {
            "POSITION": 1,
            "JOINTS_0": 2,
            "WEIGHTS_0": 3,
            "NORMAL": 4,
            "TEXCOORD_0": 5
          },
          "indices": 0,
          "material": 0
        },
        {
          "attributes": {
            "POSITION": 7,
            "JOINTS_0": 8,
            "WEIGHTS_0": 9,
            "NORMAL": 10,
            "TEXCOORD_0": 11
          },
          "indices": 6,
          "material": 1
        }
      ]
    }
  ],
  "nodes": [
    {
      "name": "skinned_mesh",
      "children": [
        1,
        3,
        47
      ],
      "mesh": 0,
      "skin": 0
    },
    {
      "name": "base",
      "children": [
        2
      ],
      "rotation": [
        0,
        1,
        0,
        0
      ],
      "scale": [
        0.99999976,
        1,
        0.99999976
      ]
    },
    {
      "name": "crystal",
      "scale": [
        0.99999994,
        0.99999994,
        0.99999994
      ],
      "translation": [
        0,
        245.13419,
        0
      ]
    },
    {
      "name": "Root_break",
      "children": [
        4,
        36,
        37,
        38,
        39,
        40,
        41,
        42,
        43,
        44,
        45,
        46
      ],
      "rotation": [
        0,
        -0.70710665,
        0,
        0.7071069
      ],
      "scale": [
        0.9999999,
        1,
        0.9999999
      ]
    },
    {
      "name": "crystals",
      "children": [
        5,
        6,
        7,
        8,
        9,
        10,
        11,
        12,
        13,
        14,
        15,
        16,
        17,
        18,
        19,
        20,
        21,
        22,
        23,
        24,
        25,
        26,
        27,
        28,
        29,
        30,
        31,
        32,
        33,
        34,
        35
      ],
      "rotation": [
        0,
        -0.70710665,
        0,
        0.7071069
      ],
      "scale": [
        0.9999998,
        0.99999994,
        0.9999998
      ]
    },
    {
      "name": "bone_cp",
      "scale": [
        0.99999994,
        0.99999994,
        0.99999994
      ],
      "translation": [
        -14.168448,
        177.23578,
        28.797997
      ]
    },
    {
      "name": "bone_cp1",
      "scale": [
        0.99999994,
        0.99999994,
        0.99999994
      ],
      "translation": [
        -55.313545,
        31.186169,
        57.443314
      ]
    },
    {
      "name": "bone_cp2",
      "scale": [
        0.99999994,
        0.99999994,
        0.99999994
      ],
      "translation": [
        56.114227,
        177.23578,
        -5.7841635
      ]
    },
    {
      "name": "bone_cp3",
      "scale": [
        0.99999994,
        0.99999994,
        0.99999994
      ],
      "translation": [
        80.30234,
        -20.580656,
        19.087069
      ]
    },
    {
      "name": "bone_cp4",
      "scale": [
        0.99999994,
        0.99999994,
        0.99999994
      ],
      "translation": [
        57.844955,
        193.27159,
        48.872314
      ]
    },
    {
      "name": "bone_cp5",
      "scale": [
        0.99999994,
        0.99999994,
        0.99999994
      ],
      "translation": [
        -3.2629879,
        160.95808,
        75.90796
      ]
    },
    {
      "name": "bone_cp6",
      "scale": [
        0.99999994,
        0.99999994,
        0.99999994
      ],
      "translation": [
        34.707485,
        316.28247,
        17.528759
      ]
    },
    {
      "name": "bone_cp7",
      "scale": [
        0.99999994,
        0.99999994,
        0.99999994
      ],
      "translation": [
        -23.797338,
        316.65836,
        -60.940296
      ]
    },
    {
      "name": "bone_cp8",
      "scale": [
        0.99999994,
        0.99999994,
        0.99999994
      ],
      "translation": [
        36.187496,
        165.02748,
        -65.88383
      ]
    },
    {
      "name": "bone_cp9",
      "scale": [
        0.99999994,
        0.99999994,
        0.99999994
      ],
      "translation": [
        -17.016127,
        -24.792088,
        -63.784145
      ]
    },
    {
      "name": "bone_cp10",
      "scale": [
        0.99999994,
        0.99999994,
        0.99999994
      ],
      "translation": [
        -31.83932,
        208.69537,
        -13.32051
      ]
    },
    {
      "name": "bone_cp11",
      "scale": [
        0.99999994,
        0.99999994,
        0.99999994
      ],
      "translation": [
        24.886938,
        311.65427,
        -50.607086
      ]
    },
    {
      "name": "bone_cp12",
      "scale": [
        0.99999994,
        0.99999994,
        0.99999994
      ],
      "translation": [
        -56.361057,
        176.86607,
        -13.788569
      ]
    },
    {
      "name": "bone_cp13",
      "scale": [
        0.99999994,
        0.99999994,
        0.99999994
      ],
      "translation": [
        -71.27294,
        -162.07687,
        -1.280615
      ]
    },
    {
      "name": "bone_cp15",
      "scale": [
        0.99999994,
        0.99999994,
        0.99999994
      ],
      "translation": [
        -73.51968,
        60.769787,
        -34.07015
      ]
    },
    {
      "name": "bone_cp16",
      "scale": [
        0.99999994,
        0.99999994,
        0.99999994
      ],
      "translation": [
        25.725298,
        -198.18929,
        35.147175
      ]
    },
    {
      "name": "bone_cp20",
      "scale": [
        0.99999994,
        0.99999994,
        0.99999994
      ],
      "translation": [
        -16.168787,
        -312.74588,
        14.502878
      ]
    },
    {
      "name": "bone_cp19",
      "scale": [
        0.99999994,
        0.99999994,
        0.99999994
      ],
      "translation": [
        40.691257,
        -312.14807,
        -2.551566
      ]
    },
    {
      "name": "bone_cp21",
      "scale": [
        0.99999994,
        0.99999994,
        0.99999994
      ],
      "translation": [
        7.9753776,
        -321.35745,
        -51.468517
      ]
    },
    {
      "name": "bone_cp14",
      "scale": [
        0.99999994,
        0.99999994,
        0.99999994
      ],
      "translation": [
        52.026077,
        -66.549034,
        -33.178417
      ]
    },
    {
      "name": "bone_cp18",
      "scale": [
        0.99999994,
        0.99999994,
        0.99999994
      ],
      "translation": [
        -68.38591,
        -238.87907,
        -37.460384
      ]
    },
    {
      "name": "bone_cp17",
      "scale": [
        0.99999994,
        0.99999994,
        0.99999994
      ],
      "translation": [
        5.0358667,
        42.817436,
        38.208668
      ]
    },
    {
      "name": "bone_pp",
      "scale": [
        0.99999994,
        0.99999994,
        0.99999994
      ],
      "translation": [
        -112.74849,
        85.47652,
        9.765619E-05
      ]
    },
    {
      "name": "bone_pp1",
      "scale": [
        0.99999994,
        0.99999994,
        0.99999994
      ],
      "translation": [
        158.14848,
        124.928085,
        -0.1705086
      ]
    },
    {
      "name": "bone_pp2",
      "scale": [
        0.99999994,
        0.99999994,
        0.99999994
      ],
      "translation": [
        -156.09868,
        124.928085,
        0.17090067
      ]
    },
    {
      "name": "bone_pp3",
      "scale": [
        0.99999994,
        0.99999994,
        0.99999994
      ],
      "translation": [
        0,
        -74.5224,
        130.79988
      ]
    },
    {
      "name": "bone_pp4",
      "scale": [
        0.99999994,
        0.99999994,
        0.99999994
      ],
      "translation": [
        112.74839,
        51.777687,
        9.765619E-05
      ]
    },
    {
      "name": "bone_pp5",
      "scale": [
        0.99999994,
        0.99999994,
        0.99999994
      ],
      "translation": [
        107.88359,
        -225.40128,
        0.24497528
      ]
    },
    {
      "name": "bone_pp6",
      "scale": [
        0.99999994,
        0.99999994,
        0.99999994
      ],
      "translation": [
        8.431392,
        -81.69111,
        -130.79968
      ]
    },
    {
      "name": "bone_pp7",
      "scale": [
        0.99999994,
        0.99999994,
        0.99999994
      ],
      "translation": [
        -111.94689,
        -190.66887,
        0.00024414097
      ]
    },
    {
      "name": "bone_pp8",
      "scale": [
        0.99999994,
        0.99999994,
        0.99999994
      ],
      "translation": [
        -7.6306634,
        166.60178,
        -96.059135
      ]
    },
    {
      "name": "bone_bp7",
      "scale": [
        0.99999994,
        0.99999994,
        0.99999994
      ],
      "translation": [
        -101.467995,
        40.75404,
        -233.52078
      ]
    },
    {
      "name": "bone_bp6",
      "scale": [
        0.99999994,
        0.99999994,
        0.99999994
      ],
      "translation": [
        -226.21169,
        18.065989,
        113.49739
      ]
    },
    {
      "name": "bone_bp5",
      "scale": [
        0.99999994,
        0.99999994,
        0.99999994
      ],
      "translation": [
        -288.46655,
        53.074345,
        -43.701107
      ]
    },
    {
      "name": "bone_bp4",
      "scale": [
        0.99999994,
        0.99999994,
        0.99999994
      ],
      "translation": [
        -53.616177,
        75.94686,
        273.14346
      ]
    },
    {
      "name": "bone_bp3",
      "scale": [
        0.99999994,
        0.99999994,
        0.99999994
      ],
      "translation": [
        224.90749,
        37.42835,
        114.28159
      ]
    },
    {
      "name": "bone_bp2",
      "scale": [
        0.99999994,
        0.99999994,
        0.99999994
      ],
      "translation": [
        -221.54738,
        18.065989,
        -120.70579
      ]
    },
    {
      "name": "bone_bp1",
      "scale": [
        0.99999994,
        0.99999994,
        0.99999994
      ],
      "translation": [
        -182.1343,
        33.014748,
        -175.40959
      ]
    },
    {
      "name": "bone_bp",
      "scale": [
        0.99999994,
        0.99999994,
        0.99999994
      ],
      "translation": [
        89.60014,
        75.00067,
        258.63855
      ]
    },
    {
      "name": "bone_bp10",
      "scale": [
        0.99999994,
        0.99999994,
        0.99999994
      ],
      "translation": [
        258.53137,
        99.91645,
        -38.409275
      ]
    },
    {
      "name": "bone_bp9",
      "scale": [
        0.99999994,
        0.99999994,
        0.99999994
      ],
      "translation": [
        149.34328,
        20.227108,
        -199.75487
      ]
    },
    {
      "name": "bone_sruap_orderNexus_base",
      "scale": [
        0.99999994,
        0.99999994,
        0.99999994
      ],
      "translation": [
        0,
        -344.19278,
        3.6621095E-05
      ]
    },
    {
      "name": "bone_sruap_orderNexus_base_FK",
      "rotation": [
        0,
        -0.70710665,
        0,
        0.7071069
      ],
      "scale": [
        0.9999999,
        1,
        0.9999999
      ],
      "translation": [
        -3.66211E-05,
        -344.1928,
        0
      ]
    }
  ],
  "scene": 0,
  "scenes": [
    {
      "name": "SkinnedMesh",
      "nodes": [
        0
      ]
    }
  ],
  "skins": [
    {
      "inverseBindMatrices": 12,
      "joints": [
        1,
        2,
        3,
        4,
        5,
        6,
        7,
        8,
        9,
        10,
        11,
        12,
        13,
        14,
        15,
        16,
        17,
        18,
        19,
        20,
        21,
        22,
        23,
        24,
        25,
        26,
        27,
        28,
        29,
        30,
        31,
        32,
        33,
        34,
        35,
        36,
        37,
        38,
        39,
        40,
        41,
        42,
        43,
        44,
        45,
        46,
        47
      ]
    }
  ],
  "textures": [
    {
      "source": 0
    },
    {
      "source": 1
    }
  ]
}