{
  "asset": {
    "copyright": "",
    "generator": "SharpGLTF 1.0.0-alpha0029",
    "version": "2.0"
  },
  "extensionsUsed": [
    "KHR_materials_unlit"
  ],
  "accessors": [
    {
      "bufferView": 0,
      "componentType": 5123,
      "count": 6,
      "type": "SCALAR"
    },
    {
      "name": "POSITION",
      "bufferView": 1,
      "componentType": 5126,
      "count": 4,
      "max": [
        0.0004999999655410647,
        1.1102229481109499E-19,
        0.0004999999655410647
      ],
      "min": [
        -0.0004999999655410647,
        -1.1102229481109499E-19,
        -0.0004999999655410647
      ],
      "type": "VEC3"
    },
    {
      "name": "JOINTS_0",
      "bufferView": 2,
      "componentType": 5121,
      "count": 4,
      "type": "VEC4"
    },
    {
      "name": "WEIGHTS_0",
      "bufferView": 3,
      "componentType": 5126,
      "count": 4,
      "max": [
        1,
        0,
        0,
        0
      ],
      "min": [
        1,
        0,
        0,
        0
      ],
      "type": "VEC4"
    },
    {
      "name": "NORMAL",
      "bufferView": 4,
      "componentType": 5126,
      "count": 4,
      "max": [
        0,
        1,
        0
      ],
      "min": [
        0,
        1,
        0
      ],
      "type": "VEC3"
    },
    {
      "name": "TEXCOORD_0",
      "bufferView": 5,
      "componentType": 5126,
      "count": 4,
      "max": [
        1,
        1
      ],
      "min": [
        0,
        0
      ],
      "type": "VEC2"
    },
    {
      "name": "Bind Matrices",
      "bufferView": 6,
      "componentType": 5126,
      "count": 3,
      "max": [
        -1,
        0,
        0,
        0,
        0,
        1,
        0,
        0,
        0,
        0,
        -1,
        0,
        0.28828126192092896,
        0,
        137.66171264648438,
        1
      ],
      "min": [
        -1,
        0,
        0,
        0,
        0,
        1,
        0,
        0,
        0,
        0,
        -1,
        0,
        0,
        -393.7751159667969,
        -7.533593654632568,
        1
      ],
      "type": "MAT4"
    }
  ],
  "bufferViews": [
    {
      "buffer": 0,
      "byteLength": 12,
      "byteOffset": 400,
      "target": 34963
    },
    {
      "buffer": 0,
      "byteLength": 48,
      "byteOffset": 256,
      "byteStride": 12,
      "target": 34962
    },
    {
      "buffer": 0,
      "byteLength": 16,
      "byteOffset": 384,
      "byteStride": 4,
      "target": 34962
    },
    {
      "buffer": 0,
      "byteLength": 64,
      "byteOffset": 192,
      "byteStride": 16,
      "target": 34962
    },
    {
      "buffer": 0,
      "byteLength": 48,
      "byteOffset": 304,
      "byteStride": 12,
      "target": 34962
    },
    {
      "buffer": 0,
      "byteLength": 32,
      "byteOffset": 352,
      "byteStride": 8,
      "target": 34962
    },
    {
      "buffer": 0,
      "byteLength": 192
    }
  ],
  "buffers": [
    {
      "byteLength": 412,
      "uri": "turret.bin"
    }
  ],
  "images": [
    {
      "uri": "turret.png"
    }
  ],
  "materials": [
    {
      "extensions": {
        "KHR_materials_unlit": {}
      },
      "name": "lambert1",
      "doubleSided": true,
      "pbrMetallicRoughness": {
        "baseColorTexture": {
          "index": 0
        }
      }
    }
  ],
  "meshes": [
    {
      "primitives": [
        {
          "attributes": {
            "POSITION": 1,
            "JOINTS_0": 2,
            "WEIGHTS_0": 3,
            "NORMAL": 4,
            "TEXCOORD_0": 5
          },
          "indices": 0,
          "material": 0
        }
      ]
    }
  ],
  "nodes": [
    {
      "name": "skinned_mesh",
      "children": [
        1
      ],
      "mesh": 0,
      "skin": 0
    },
    {
      "name": "joint1",
      "children": [
        2,
        3
      ],
      "rotation": [
        0,
        1,
        0,
        0
      ],
      "scale": [
        0.99999976,
        1,
        0.99999976
      ]
    },
    {
      "name": "joint3",
      "scale": [
        0.99999994,
        0.99999994,
        0.99999994
      ],
      "translation": [
        -0.28828123,
        393.7751,
        -137.6617
      ]
    },
    {
      "name": "joint2",
      "scale": [
        0.99999994,
        0.99999994,
        0.99999994
      ],
      "translation": [
        -0.28828123,
        393.7751,
        7.533593
      ]
    }
  ],
  "scene": 0,
  "scenes": [
    {
      "name": "SkinnedMesh",
      "nodes": [
        0
      ]
    }
  ],
  "skins": [
    {
      "inverseBindMatrices": 6,
      "joints": [
        1,
        2,
        3
      ]
    }
  ],
  "textures": [
    {
      "source": 0
    }
  ]
}